<svg xmlns="http://www.w3.org/2000/svg" width="256" height="256" viewBox="0 0 100 100"><rect width="100" height="100" rx="20" fill="#160e33"></rect><path d="M37.31 81.50L25.97 81.50Q24.98 81.50 24.35 80.83Q23.72 80.15 23.72 79.25L23.72 79.25L23.72 20.75Q23.72 19.76 24.35 19.13Q24.98 18.50 25.97 18.50L25.97 18.50L37.31 18.50Q38.30 18.50 38.93 19.13Q39.56 19.76 39.56 20.75L39.56 20.75L39.56 40.73L56.21 20.21Q56.57 19.67 57.42 19.09Q58.28 18.50 59.72 18.50L59.72 18.50L72.68 18.50Q73.49 18.50 74.03 19.09Q74.57 19.67 74.57 20.39L74.57 20.39Q74.57 21.02 74.30 21.47L74.30 21.47L52.70 48.65L75.92 78.53Q76.28 78.89 76.28 79.61L76.28 79.61Q76.28 80.33 75.74 80.92Q75.20 81.50 74.39 81.50L74.39 81.50L60.98 81.50Q59.36 81.50 58.50 80.78Q57.65 80.06 57.38 79.70L57.38 79.70L39.56 57.47L39.56 79.25Q39.56 80.15 38.93 80.83Q38.30 81.50 37.31 81.50L37.31 81.50Z" fill="#ef443b"></path></svg>