<svg width="25" height="24" viewBox="0 0 25 24" fill="none" xmlns="http://www.w3.org/2000/svg">
<g clip-path="url(#clip0_3_602)">
<path d="M12.4706 24C19.098 24 24.4706 18.6274 24.4706 12C24.4706 5.37258 19.098 0 12.4706 0C5.84316 0 0.470581 5.37258 0.470581 12C0.470581 18.6274 5.84316 24 12.4706 24Z" fill="#5DE1C4"/>
<path d="M18.1668 1.43579C19.3602 3.30057 20.0521 5.5171 20.0521 7.89535C20.0521 14.5228 14.6796 19.8953 8.05213 19.8953C5.99061 19.8953 4.05069 19.3753 2.35593 18.4595C4.48813 21.7913 8.22139 24 12.4706 24C19.098 24 24.4706 18.6274 24.4706 12C24.4706 7.43406 21.9204 3.46398 18.1668 1.43579Z" fill="#0ED2B3"/>
<path d="M12.4706 22.4249C18.2415 22.4249 22.9197 17.7467 22.9197 11.9758C22.9197 6.20485 18.2415 1.52661 12.4706 1.52661C6.69968 1.52661 2.02144 6.20485 2.02144 11.9758C2.02144 17.7467 6.69968 22.4249 12.4706 22.4249Z" fill="#D8F6EF"/>
<path d="M19.4989 4.22998C19.8698 5.3862 20.0703 6.61864 20.0703 7.89804C20.0703 14.5255 14.6977 19.898 8.0703 19.898C7.12437 19.898 6.20412 19.7883 5.32132 19.5813C7.19229 21.3458 9.71407 22.4277 12.4888 22.4277C18.2597 22.4277 22.9379 17.7494 22.9379 11.9786C22.938 8.9052 21.611 6.14192 19.4989 4.22998V4.22998Z" fill="#C6F2E7"/>
<path d="M15.6664 17.1878H16.8552C17.3269 17.1878 17.7094 16.8073 17.7094 16.338V15.0464C17.1187 15.8416 16.432 16.561 15.6664 17.1878Z" fill="#0AB69F"/>
<path d="M17.7094 16.3379C17.7094 16.8072 17.327 17.1876 16.8552 17.1876L12.1723 17.1782C10.8517 17.1043 9.62175 16.5437 8.69981 15.5932C7.75313 14.6171 7.23178 13.3325 7.23178 11.9758C7.23178 9.10195 9.58191 6.76392 12.4706 6.76392C13.8343 6.76392 15.1257 7.28259 16.1067 8.2244C17.0622 9.1416 17.6257 10.3652 17.6999 11.679L17.7094 16.3379ZM16.1205 11.8336C16.045 9.87496 14.4418 8.34074 12.4706 8.34074C10.4558 8.34074 8.81677 9.97139 8.81677 11.9758C8.81677 13.9368 10.359 15.5318 12.3277 15.6069L16.0081 15.6108C16.0723 15.6108 16.1244 15.5587 16.1244 15.4945L16.1205 11.8336Z" fill="#5DE1C4"/>
</g>
<defs>
<clipPath id="clip0_3_602">
<rect width="24" height="24" fill="white" transform="translate(0.470581)"/>
</clipPath>
</defs>
</svg>
