<svg width="25" height="24" viewBox="0 0 25 24" fill="none" xmlns="http://www.w3.org/2000/svg">
<g clip-path="url(#clip0_3_587)">
<path d="M12.1176 24C18.81 24 24.2353 18.6274 24.2353 12C24.2353 5.37258 18.81 0 12.1176 0C5.42526 0 0 5.37258 0 12C0 18.6274 5.42526 24 12.1176 24Z" fill="#B6C4CF"/>
<path d="M17.6726 1.33276C18.9716 3.24751 19.7283 5.55301 19.7247 8.03331C19.7152 14.6607 14.2822 20.0257 7.5898 20.0162C5.5937 20.0134 3.7112 19.5326 2.05212 18.6836C4.22412 21.8852 7.91257 23.9942 12.1004 24.0001C18.7928 24.0096 24.2258 18.6446 24.2353 12.0172C24.242 7.36651 21.576 3.3302 17.6726 1.33276Z" fill="#8D9CA8"/>
<path d="M12.1176 22.4493C17.9451 22.4493 22.6692 17.7711 22.6692 12.0002C22.6692 6.22927 17.9451 1.55103 12.1176 1.55103C6.29016 1.55103 1.56606 6.22927 1.56606 12.0002C1.56606 17.7711 6.29016 22.4493 12.1176 22.4493Z" fill="#F5F8F9"/>
<path d="M19.0819 4.15063C19.5002 5.36878 19.7266 6.67471 19.7247 8.03315C19.7152 14.6606 14.2822 20.0255 7.5898 20.0161C6.71273 20.0149 5.85787 19.9205 5.03392 19.7441C6.90283 21.4216 9.3816 22.4453 12.1026 22.4491C17.9301 22.4573 22.6609 17.7858 22.6692 12.0149C22.6737 8.88163 21.2848 6.06895 19.0819 4.15063Z" fill="#E8EDF2"/>
<path d="M15.4057 16.4078L11.068 16.4017L11.9233 13.2972L13.8999 12.6923C14.2853 12.5744 14.5011 12.1699 14.3817 11.7888C14.2624 11.4078 13.8533 11.1946 13.4678 11.3125L12.3783 11.6459L13.6401 7.06593C13.7461 6.68109 13.5165 6.28415 13.1272 6.17934C12.738 6.07462 12.3364 6.30154 12.2303 6.68638L10.7245 12.152L8.60536 12.8005C8.21996 12.9185 8.00421 13.3229 8.12354 13.704C8.22048 14.0136 8.5087 14.2124 8.82016 14.2128C8.89202 14.2129 8.96515 14.2025 9.03743 14.1803L10.2696 13.8033L9.4074 16.9328C9.34761 17.1498 9.39348 17.3819 9.53146 17.5606C9.66944 17.7394 9.88377 17.8445 10.1112 17.8448L15.4036 17.8522C15.8071 17.8528 16.1346 17.5299 16.1352 17.1311C16.1357 16.7322 15.8091 16.4084 15.4057 16.4078Z" fill="#B6C4CF"/>
</g>
<defs>
<clipPath id="clip0_3_587">
<rect width="24.2353" height="24" fill="white"/>
</clipPath>
</defs>
</svg>
