<svg width="24" height="24" viewBox="0 0 24 24" fill="none" xmlns="http://www.w3.org/2000/svg">
<path d="M12 24C18.6274 24 24 18.6274 24 12C24 5.37258 18.6274 0 12 0C5.37258 0 0 5.37258 0 12C0 18.6274 5.37258 24 12 24Z" fill="#FD9468"/>
<path d="M18.9612 2.22461C19.6993 3.78311 20.1127 5.52527 20.1127 7.36422C20.1127 14.005 14.7293 19.3884 8.08859 19.3884C5.52068 19.3884 3.14116 18.5829 1.18784 17.2115C3.12762 21.2287 7.2401 24.0001 12 24.0001C18.6274 24.0001 24 18.6275 24 12.0001C24 7.96792 22.0113 4.40045 18.9612 2.22461Z" fill="#FE7D43"/>
<path d="M12 22.4493C17.7709 22.4493 22.4492 17.7711 22.4492 12.0002C22.4492 6.22927 17.7709 1.55103 12 1.55103C6.22911 1.55103 1.55087 6.22927 1.55087 12.0002C1.55087 17.7711 6.22911 22.4493 12 22.4493Z" fill="#FFDCCE"/>
<path d="M16.2321 12.2178C16.6806 11.8757 17.0253 11.383 17.1817 10.788C17.5501 9.38724 16.7413 7.94494 15.3789 7.57284L15.1173 7.50141L15.3357 6.67102C15.4346 6.2948 15.222 5.90981 14.8607 5.81114C14.4995 5.71247 14.1265 5.93752 14.0275 6.31374L13.8091 7.14413L12.3662 6.75005L12.5846 5.91966C12.6836 5.54344 12.4709 5.15845 12.1097 5.05983C11.7485 4.96116 11.3754 5.1862 11.2765 5.56242L11.0581 6.39281L9.20165 5.88577C8.84043 5.78709 8.4674 6.01214 8.36845 6.38836C8.26949 6.76458 8.48212 7.14956 8.84338 7.24819L9.90707 7.53872L8.22093 13.9506L7.15724 13.66C6.79602 13.5614 6.42299 13.7864 6.32404 14.1626C6.22509 14.5388 6.43771 14.9238 6.79898 15.0225L8.65541 15.5295L8.46993 16.2348C8.37098 16.6111 8.5836 16.996 8.94487 17.0947C9.30609 17.1934 9.67912 16.9683 9.77807 16.5921L9.96356 15.8868L11.4065 16.2809L11.221 16.9862C11.122 17.3624 11.3346 17.7474 11.6959 17.846C12.0571 17.9447 12.4302 17.7196 12.5291 17.3434L12.7146 16.6381L13.5378 16.863C14.9913 17.2599 16.4934 16.3675 16.8863 14.8736C17.1431 13.8968 16.8629 12.9011 16.2321 12.2178ZM15.0206 8.93522C15.6617 9.11035 16.0444 9.78117 15.8736 10.4306C15.7028 11.0801 15.0422 11.466 14.4011 11.2909L12.1218 10.6684L10.5957 10.2516L11.2152 7.89591L15.0206 8.93522ZM13.896 15.5004L9.52907 14.3078L10.2374 11.614L11.7636 12.0308L14.0428 12.6533L14.6044 12.8067C15.3366 13.0067 15.7734 13.7736 15.5781 14.5163C15.3828 15.2589 14.6282 15.7004 13.896 15.5004Z" fill="#FD9468"/>
<path d="M19.9135 5.17651C20.0439 5.88597 20.1127 6.61703 20.1127 7.36417C20.1127 14.0049 14.7293 19.3883 8.08855 19.3883C6.63196 19.3883 5.23588 19.1292 3.94382 18.6547C5.86035 20.9724 8.75769 22.4492 12 22.4492C17.7709 22.4492 22.4491 17.7709 22.4491 12C22.4491 9.39198 21.4935 7.00726 19.9135 5.17651Z" fill="#FFD1BE"/>
</svg>
