<svg width="25" height="24" viewBox="0 0 25 24" fill="none" xmlns="http://www.w3.org/2000/svg">
<g clip-path="url(#clip0_3_594)">
<path d="M12.3529 24C19.0453 24 24.4706 18.6274 24.4706 12C24.4706 5.37258 19.0453 0 12.3529 0C5.66055 0 0.235291 5.37258 0.235291 12C0.235291 18.6274 5.66055 24 12.3529 24Z" fill="#8AC9FE"/>
<path d="M18.3655 1.57935C19.6197 3.46925 20.3501 5.7305 20.3501 8.16106C20.3501 14.7885 14.9249 20.1611 8.2325 20.1611C6.04441 20.1611 3.99189 19.5865 2.22002 18.5818C4.38581 21.8451 8.11497 24.0001 12.353 24.0001C19.0454 24.0001 24.4706 18.6275 24.4706 12.0001C24.4706 7.5395 22.0129 3.64761 18.3655 1.57935Z" fill="#60B7FF"/>
<path d="M12.353 22.4493C18.1805 22.4493 22.9046 17.7711 22.9046 12.0002C22.9046 6.22927 18.1805 1.55103 12.353 1.55103C6.5255 1.55103 1.80139 6.22927 1.80139 12.0002C1.80139 17.7711 6.5255 22.4493 12.353 22.4493Z" fill="#EAF6FF"/>
<path d="M12.3529 17.8475C12.2235 17.8475 12.0942 17.8152 11.9775 17.7507L7.3786 15.2084C7.13487 15.0737 6.98383 14.8188 6.98383 14.5424V9.45765C6.98383 9.18123 7.13487 8.92642 7.3786 8.7917L11.9775 6.24934C12.2108 6.12034 12.4949 6.12034 12.7283 6.24934L17.3272 8.7917C17.5709 8.92642 17.722 9.18123 17.722 9.45765V14.5424C17.722 14.8188 17.5709 15.0737 17.3272 15.2084L12.7283 17.7507C12.6116 17.8152 12.4823 17.8475 12.3529 17.8475ZM8.72716 14.2068L12.1599 16.1045C12.2799 16.1709 12.4259 16.1709 12.5459 16.1045L15.9786 14.2068C16.1039 14.1376 16.1815 14.0066 16.1815 13.8645V10.1355C16.1815 9.99343 16.1039 9.86242 15.9786 9.79318L12.5459 7.89549C12.4259 7.82917 12.2799 7.82917 12.1599 7.89549L8.72716 9.79318C8.60187 9.86246 8.52424 9.99343 8.52424 10.1355V13.8645C8.52419 14.0066 8.60187 14.1376 8.72716 14.2068Z" fill="#60B7FF"/>
<path d="M19.8097 4.60718C20.1608 5.73021 20.3501 6.92369 20.3501 8.16101C20.3501 14.7884 14.9249 20.161 8.23249 20.161C7.24093 20.161 6.27748 20.0422 5.35507 19.8197C7.2175 21.4554 9.66787 22.4492 12.353 22.4492C18.1805 22.4492 22.9046 17.7709 22.9046 12.0001C22.9045 9.11243 21.7217 6.4984 19.8097 4.60718Z" fill="#D8ECFE"/>
</g>
<defs>
<clipPath id="clip0_3_594">
<rect width="24.2353" height="24" fill="white" transform="translate(0.235291)"/>
</clipPath>
</defs>
</svg>
