<!-- Generated by IcoMoon.io -->
<svg version="1.1" xmlns="http://www.w3.org/2000/svg" width="1024" height="1024" viewBox="0 0 1024 1024">
<title></title>
<g id="icomoon-ignore">
</g>
<path fill="#ef4444" d="M853.334 277.356h-93.014c4.693-13.227 7.68-27.735 7.68-42.668 0.046-27.527-8.795-54.333-25.209-76.433-16.412-22.099-39.522-38.309-65.889-46.219s-54.581-7.097-80.449 2.317-48.005 26.928-63.119 49.935l-21.334 28.587-21.334-29.014c-23.040-34.133-61.865-57.173-106.666-57.173-70.826 0-128 57.173-128 128 0 14.933 2.987 29.441 7.68 42.668h-93.014c-47.359 0-84.906 37.973-84.906 85.332l-0.427 469.334c0 47.361 37.973 85.334 85.333 85.334h682.668c47.359 0 85.332-37.973 85.332-85.334v-469.334c0-47.359-37.973-85.332-85.332-85.332zM640 192.022c23.467 0 42.666 19.199 42.666 42.666s-19.199 42.668-42.666 42.668c-23.467 0-42.666-19.201-42.666-42.668s19.199-42.666 42.666-42.666zM384 192.022c23.467 0 42.666 19.199 42.666 42.666s-19.199 42.668-42.666 42.668c-23.467 0-42.666-19.201-42.666-42.668s19.199-42.666 42.666-42.666zM853.334 832.022h-682.668v-85.334h682.668v85.334zM853.334 618.688h-682.668v-256h216.748l-88.748 120.747 69.12 49.921 144.214-196.268 144.214 196.268 69.12-49.921-88.748-120.747h216.748v256z"></path>
</svg>
