<!-- Generated by IcoMoon.io -->
<svg version="1.1" xmlns="http://www.w3.org/2000/svg" width="937" height="1024" viewBox="0 0 937 1024">
<title></title>
<g id="icomoon-ignore">
</g>
<path fill="#ef4444" d="M741.927 590.123v156.244h-78.121v-156.244h78.121zM273.195 590.123v156.244h-39.061c-21.484 0-39.061-17.578-39.061-39.061v-117.183h78.121zM468.5 82.329c-93.237 0-182.654 37.038-248.582 102.966s-102.967 155.347-102.967 248.582v273.428c0 64.841 52.342 117.183 117.183 117.183h117.183v-312.489h-156.244v-78.123c0-151.165 122.261-273.427 273.427-273.427s273.427 122.261 273.427 273.427v78.123h-156.244v312.489h156.244v39.061h-273.427v78.123h234.366c64.841 0 117.183-52.342 117.183-117.183v-390.611c0-93.236-37.039-182.654-102.967-248.582s-155.345-102.966-248.582-102.966z"></path>
</svg>
