<!-- Generated by IcoMoon.io -->
<svg version="1.1" xmlns="http://www.w3.org/2000/svg" width="1024" height="1024" viewBox="0 0 1024 1024">
<title></title>
<g id="icomoon-ignore">
</g>
<path fill="#ef4444" d="M768 362.667h-42.666v-85.334c0-117.76-95.574-213.333-213.334-213.333s-213.334 95.573-213.334 213.333v85.334h-42.666c-46.934 0-85.334 38.4-85.334 85.332v426.668c0 46.932 38.4 85.332 85.334 85.332h512c46.934 0 85.334-38.4 85.334-85.332v-426.668c0-46.932-38.4-85.332-85.334-85.332zM384 277.333c0-70.826 57.174-128 128-128s128 57.174 128 128v85.334h-256v-85.334zM768 874.667h-512v-426.668h512v426.668zM512 746.667c46.934 0 85.334-38.4 85.334-85.334s-38.4-85.334-85.334-85.334c-46.934 0-85.334 38.4-85.334 85.334s38.4 85.334 85.334 85.334z"></path>
</svg>
