<!-- Generated by IcoMoon.io -->
<svg version="1.1" xmlns="http://www.w3.org/2000/svg" width="1024" height="1024" viewBox="0 0 1024 1024">
<title></title>
<g id="icomoon-ignore">
</g>
<path fill="#ef4444" d="M528.641 465.066c-96.855-25.173-128-51.2-128-91.733 0-46.507 43.093-78.933 115.2-78.933 75.946 0 104.106 36.267 106.666 89.6h94.293c-2.987-73.386-47.786-140.8-136.959-162.559v-93.441h-128v92.16c-82.774 17.92-149.334 71.68-149.334 154.027 0 98.559 81.493 147.626 200.534 176.213 106.666 25.6 128 63.146 128 102.827 0 29.439-20.907 76.373-115.2 76.373-87.894 0-122.455-39.254-127.148-89.6h-93.866c5.12 93.439 75.094 145.92 157.014 163.413v92.587h128v-91.733c83.199-15.787 149.332-64 149.332-151.467 0-121.174-103.679-162.561-200.532-187.734z"></path>
</svg>
