<!-- Generated by IcoMoon.io -->
<svg version="1.1" xmlns="http://www.w3.org/2000/svg" width="1024" height="1024" viewBox="0 0 1024 1024">
<title></title>
<g id="icomoon-ignore">
</g>
<path fill="#ef4444" d="M810.666 213.334h-85.332v-85.334h-426.668v85.334h-85.332c-46.934 0-85.334 38.4-85.334 85.332v42.668c0 108.799 81.92 197.545 187.307 210.772 13.493 31.974 34.569 60.18 61.404 82.183 26.837 22.005 58.626 37.144 92.623 44.111v132.266h-170.668v85.334h426.668v-85.334h-170.668v-132.266c33.997-6.966 65.786-22.106 92.623-44.111 26.835-22.003 47.911-50.209 61.404-82.183 105.387-13.227 187.307-101.973 187.307-210.772v-42.668c0-46.932-38.4-85.332-85.334-85.332zM213.334 341.334v-42.668h85.332v162.988c-49.492-17.92-85.332-64.854-85.332-120.32zM512 597.334c-70.401 0-128-57.601-128-128v-256h256v256c0 70.399-57.601 128-128 128zM810.666 341.334c0 55.466-35.84 102.4-85.332 120.32v-162.988h85.332v42.668z"></path>
</svg>
