<!-- Generated by IcoMoon.io -->
<svg version="1.1" xmlns="http://www.w3.org/2000/svg" width="1024" height="1024" viewBox="0 0 1024 1024">
<title></title>
<g id="icomoon-ignore">
</g>
<path fill="#ef4444" d="M874.667 310.615v-97.28c0-46.934-38.4-85.334-85.334-85.334h-597.332c-22.632 0-44.338 8.99-60.34 24.993s-24.993 37.708-24.993 60.34v597.332c0 22.632 8.99 44.338 24.993 60.34s37.708 24.993 60.34 24.993h597.332c46.934 0 85.334-38.4 85.334-85.334v-97.28c12.898-7.445 23.621-18.137 31.106-31.011s11.47-27.483 11.56-42.375v-256c-0.090-14.892-4.076-29.501-11.56-42.375-7.485-12.876-18.208-23.566-31.106-31.011zM832.001 384.001v256h-298.668v-256h298.668zM192.001 810.667v-597.332h597.332v85.332h-256c-46.932 0-85.332 38.4-85.332 85.334v256c0 46.934 38.4 85.334 85.332 85.334h256v85.332h-597.332z"></path>
<path fill="#ef4444" d="M661.333 576.001c35.347 0 64-28.653 64-64s-28.653-64-64-64c-35.345 0-64 28.653-64 64s28.655 64 64 64z"></path>
</svg>
