<!-- Generated by IcoMoon.io -->
<svg version="1.1" xmlns="http://www.w3.org/2000/svg" width="1024" height="1024" viewBox="0 0 1024 1024">
<title></title>
<g id="icomoon-ignore">
</g>
<path fill="#2a5f9e" d="M352 964.8v-220.8l-164.8 121.6c46.4 43.2 102.4 76.8 164.8 99.2zM672 964.8c62.4-22.4 118.4-56 164.8-99.2l-164.8-123.2zM59.2 672c4.8 16 11.2 30.4 19.2 46.4l62.4-46.4zM883.2 672l62.4 46.4c6.4-14.4 12.8-30.4 19.2-46.4z"></path>
<path fill="#fff" d="M376 608h-334.4c4.8 22.4 11.2 43.2 17.6 64h81.6l-62.4 46.4c12.8 27.2 27.2 51.2 44.8 75.2l164.8-121.6h64v32l-187.2 137.6 22.4 22.4 164.8-120v220.8c20.8 8 41.6 12.8 64 17.6v-374.4zM982.4 608h-374.4v374.4c22.4-4.8 43.2-11.2 64-17.6v-220.8l164.8 120c22.4-20.8 41.6-43.2 60.8-67.2l-171.2-124.8h108.8l97.6 72c4.8-8 9.6-17.6 12.8-25.6l-62.4-46.4h81.6c6.4-20.8 12.8-41.6 17.6-64z"></path>
<path fill="#ed4c5c" d="M123.2 793.6c12.8 17.6 25.6 33.6 40 49.6l188.8-137.6v-32h-64zM728 672l171.2 124.8c6.4-8 11.2-16 17.6-24 1.6-1.6 1.6-3.2 3.2-3.2 4.8-8 11.2-17.6 16-25.6l-100.8-72z"></path>
<path fill="#2a5f9e" d="M672 59.2v220.8l164.8-121.6c-46.4-43.2-102.4-76.8-164.8-99.2zM352 59.2c-62.4 22.4-118.4 56-164.8 99.2l164.8 123.2zM964.8 352c-4.8-16-11.2-30.4-19.2-46.4l-62.4 46.4zM140.8 352l-62.4-46.4c-6.4 16-12.8 30.4-19.2 46.4z"></path>
<path fill="#fff" d="M648 416h332.8c-4.8-22.4-11.2-43.2-17.6-64h-81.6l62.4-46.4c-12.8-27.2-27.2-51.2-44.8-75.2l-163.2 121.6h-64v-32l187.2-137.6-22.4-22.4-164.8 120v-220.8c-20.8-8-41.6-12.8-64-17.6v374.4zM41.6 416h374.4v-374.4c-22.4 4.8-43.2 11.2-64 17.6v220.8l-164.8-120c-22.4 20.8-41.6 43.2-60.8 67.2l171.2 124.8h-108.8l-97.6-72c-4.8 8-9.6 17.6-12.8 25.6l62.4 46.4h-81.6c-6.4 20.8-12.8 41.6-17.6 64z"></path>
<path fill="#ed4c5c" d="M900.8 230.4c-12.8-17.6-25.6-33.6-40-49.6l-188.8 137.6v32h64zM296 352l-169.6-124.8c-6.4 8-11.2 16-17.6 24-1.6 1.6-1.6 3.2-3.2 3.2-4.8 8-11.2 17.6-16 25.6l97.6 72z"></path>
<path fill="#ed4c5c" d="M982.4 416h-374.4v-374.4c-30.4-6.4-62.4-9.6-96-9.6s-65.6 3.2-96 9.6v374.4h-374.4c-6.4 30.4-9.6 62.4-9.6 96s3.2 65.6 9.6 96h374.4v374.4c30.4 6.4 62.4 9.6 96 9.6s65.6-3.2 96-9.6v-374.4h374.4c6.4-30.4 9.6-62.4 9.6-96s-3.2-65.6-9.6-96z"></path>
</svg>
