<!-- Generated by IcoMoon.io -->
<svg version="1.1" xmlns="http://www.w3.org/2000/svg" width="1024" height="1024" viewBox="0 0 1024 1024">
<title></title>
<g id="icomoon-ignore">
</g>
<path fill="#ed4c5c" d="M768 105.6c-75.2-46.4-161.6-73.6-256-73.6v73.6z"></path>
<path fill="#fff" d="M512 179.2h345.6c-27.2-27.2-57.6-52.8-89.6-73.6h-256z"></path>
<path fill="#ed4c5c" d="M512 252.8h404.8c-17.6-27.2-36.8-51.2-57.6-73.6h-347.2z"></path>
<path fill="#fff" d="M512 326.4h443.2c-11.2-25.6-24-51.2-38.4-73.6h-404.8z"></path>
<path fill="#ed4c5c" d="M512 400h467.2c-6.4-25.6-14.4-49.6-24-73.6h-443.2z"></path>
<path fill="#fff" d="M512 475.2h478.4c-1.6-25.6-6.4-49.6-11.2-73.6h-467.2z"></path>
<path fill="#ed4c5c" d="M990.4 475.2h-478.4v36.8h-480c0 12.8 0 24 1.6 36.8h956.8c1.6-12.8 1.6-24 1.6-36.8s0-25.6-1.6-36.8z"></path>
<path fill="#fff" d="M44.8 622.4h934.4c6.4-24 9.6-48 11.2-73.6h-956.8c1.6 24 4.8 49.6 11.2 73.6z"></path>
<path fill="#ed4c5c" d="M68.8 696h886.4c9.6-24 17.6-48 24-73.6h-934.4c6.4 25.6 14.4 49.6 24 73.6z"></path>
<path fill="#fff" d="M107.2 769.6h809.6c14.4-24 27.2-48 38.4-73.6h-886.4c11.2 25.6 24 49.6 38.4 73.6z"></path>
<path fill="#ed4c5c" d="M164.8 843.2h694.4c20.8-22.4 41.6-48 57.6-73.6h-809.6c16 27.2 36.8 51.2 57.6 73.6z"></path>
<path fill="#fff" d="M254.4 916.8h515.2c33.6-20.8 62.4-46.4 89.6-73.6h-694.4c27.2 28.8 57.6 52.8 89.6 73.6z"></path>
<path fill="#ed4c5c" d="M512 992c94.4 0 182.4-27.2 257.6-75.2h-515.2c75.2 48 163.2 75.2 257.6 75.2z"></path>
<path fill="#428bc1" d="M256 105.6c-33.6 20.8-64 46.4-91.2 73.6-22.4 22.4-41.6 48-57.6 73.6-14.4 24-28.8 48-38.4 73.6-9.6 24-17.6 48-24 73.6-6.4 24-9.6 48-11.2 73.6-1.6 12.8-1.6 25.6-1.6 38.4h480v-480c-94.4 0-180.8 27.2-256 73.6z"></path>
<path fill="#fff" d="M400 48l8 24h24l-19.2 16 6.4 24-19.2-14.4-19.2 14.4 6.4-24-19.2-16h24zM464 144l8 24h24l-19.2 16 6.4 24-19.2-14.4-19.2 14.4 6.4-24-19.2-16h24zM336 144l8 24h24l-19.2 16 6.4 24-19.2-14.4-19.2 14.4 6.4-24-19.2-16h24zM400 240l8 24h24l-19.2 16 6.4 24-19.2-14.4-19.2 14.4 6.4-24-19.2-16h24zM272 240l8 24h24l-19.2 16 6.4 24-19.2-14.4-19.2 14.4 6.4-24-19.2-16h24zM144 240l8 24h24l-19.2 16 6.4 24-19.2-14.4-19.2 14.4 6.4-24-19.2-16h24zM464 336l8 24h24l-19.2 16 6.4 24-19.2-14.4-19.2 14.4 6.4-24-19.2-16h24zM336 336l8 24h24l-19.2 16 6.4 24-19.2-14.4-19.2 14.4 6.4-24-19.2-16h24zM208 336l8 24h24l-19.2 16 6.4 24-19.2-14.4-19.2 14.4 6.4-24-19.2-16h24zM400 432l8 24h24l-19.2 16 6.4 24-19.2-14.4-19.2 14.4 6.4-24-19.2-16h24zM272 432l8 24h24l-19.2 16 6.4 24-19.2-14.4-19.2 14.4 6.4-24-19.2-16h24zM144 432l8 24h24l-19.2 16 6.4 24-19.2-14.4-19.2 14.4 6.4-24-19.2-16h24zM188.8 208l19.2-14.4 19.2 14.4-8-24 19.2-16h-24l-6.4-24-8 24h-22.4l19.2 14.4zM60.8 400l19.2-14.4 19.2 14.4-8-24 19.2-16h-22.4l-8-24-8 24h-16c0 1.6-1.6 3.2-1.6 4.8l12.8 9.6z"></path>
</svg>
