<!-- Generated by IcoMoon.io -->
<svg version="1.1" xmlns="http://www.w3.org/2000/svg" width="1024" height="1024" viewBox="0 0 1024 1024">
<title></title>
<g id="icomoon-ignore">
</g>
<path fill="#ffce31" d="M32 512c0 94.4 27.2 182.4 73.6 256h811.2c46.4-73.6 73.6-161.6 73.6-256s-27.2-182.4-73.6-256h-811.2c-46.4 73.6-73.6 161.6-73.6 256z"></path>
<path fill="#ed4c5c" d="M918.4 256c-84.8-134.4-235.2-224-406.4-224s-321.6 89.6-406.4 224zM105.6 768c84.8 134.4 235.2 224 406.4 224s321.6-89.6 406.4-224z"></path>
<path fill="#c8b100" d="M147.2 459.2h51.2v28.8h-51.2zM147.2 670.4h52.8v27.2h-52.8z"></path>
<path fill="#ed4c5c" d="M142.4 625.6c-4.8 3.2-8 6.4-8 8s1.6 3.2 4.8 4.8 6.4 4.8 4.8 8c3.2-3.2 4.8-6.4 4.8-9.6 0-4.8-3.2-9.6-6.4-11.2z"></path>
<path fill="#fff" d="M155.2 488h36.8v182.4h-36.8z"></path>
<path fill="#ed4c5c" d="M230.4 555.2c-8-3.2-22.4-6.4-38.4-6.4-4.8 0-11.2 0-17.6 1.6-22.4 3.2-40 12.8-38.4 19.2l-8-17.6c-1.6-8 17.6-17.6 41.6-22.4 8-1.6 16-1.6 22.4-1.6 16 0 30.4 1.6 38.4 4.8z"></path>
<path fill="#ed4c5c" d="M155.2 579.2c-9.6 0-17.6-3.2-17.6-8 0-3.2 3.2-8 9.6-11.2h9.6zM192 564.8c6.4 1.6 11.2 3.2 14.4 4.8 1.6 1.6-4.8 8-14.4 12.8z"></path>
<path fill="#ed4c5c" d="M131.2 614.4c-1.6-3.2 9.6-9.6 24-14.4 6.4-1.6 11.2-4.8 19.2-8 19.2-8 35.2-19.2 32-22.4l3.2 19.2c1.6 3.2-11.2 12.8-30.4 22.4-6.4 3.2-17.6 8-24 9.6-11.2 3.2-20.8 9.6-20.8 11.2z"></path>
<path fill="#c8b100" d="M491.2 459.2h51.2v28.8h-51.2zM489.6 670.4h52.8v27.2h-52.8z"></path>
<path fill="#ed4c5c" d="M547.2 625.6c4.8 3.2 8 6.4 8 8s-1.6 3.2-4.8 4.8c-3.2 3.2-6.4 8-4.8 9.6-3.2-3.2-4.8-6.4-4.8-9.6 0-6.4 3.2-11.2 6.4-12.8z"></path>
<path fill="#fff" d="M497.6 488h36.8v182.4h-36.8z"></path>
<path fill="#ed4c5c" d="M459.2 555.2c8-3.2 22.4-6.4 38.4-6.4 4.8 0 11.2 0 17.6 1.6 22.4 3.2 40 12.8 38.4 19.2l8-19.2c1.6-8-17.6-17.6-41.6-22.4h-22.4c-16 0-30.4 1.6-38.4 4.8z"></path>
<path fill="#ed4c5c" d="M534.4 579.2c9.6 0 17.6-3.2 17.6-8 0-3.2-3.2-8-9.6-11.2h-9.6zM497.6 564.8c-6.4 1.6-11.2 3.2-14.4 4.8-1.6 1.6 4.8 8 14.4 12.8z"></path>
<path fill="#ed4c5c" d="M558.4 614.4c1.6-3.2-9.6-9.6-24-14.4-6.4-1.6-11.2-4.8-19.2-8-19.2-8-35.2-19.2-32-22.4l-3.2 19.2c-1.6 3.2 11.2 12.8 30.4 22.4 6.4 3.2 17.6 8 24 9.6 11.2 3.2 20.8 11.2 19.2 12.8zM344 356.8c30.4 0 92.8 6.4 115.2 28.8-24 57.6-62.4 33.6-115.2 33.6-51.2 0-91.2 24-115.2-33.6 22.4-22.4 83.2-28.8 115.2-28.8z"></path>
<path fill="#c8b100" d="M422.4 420.8c-19.2-11.2-48-12.8-78.4-12.8s-59.2 3.2-78.4 12.8l6.4 27.2c17.6 4.8 43.2 8 72 8s52.8-3.2 72-8zM449.6 352c-6.4-4.8-19.2-9.6-30.4-9.6-4.8 0-9.6 0-14.4 1.6 0 0-9.6-12.8-32-12.8-8 0-14.4 1.6-20.8 4.8v-1.6c-1.6-3.2-4.8-6.4-8-6.4s-8 4.8-8 8v1.6c-6.4-3.2-12.8-4.8-20.8-4.8-22.4 0-32 14.4-32 12.8-4.8-1.6-9.6-1.6-14.4-1.6-73.6 0-36.8 49.6-36.8 49.6l8-9.6c-17.6-22.4-1.6-35.2 30.4-35.2 4.8 0 8 0 11.2 1.6-11.2 16 9.6 30.4 9.6 30.4l4.8-8c-11.2-8-12.8-35.2 19.2-35.2 8 0 14.4 1.6 20.8 6.4 0 1.6-1.6 24-3.2 27.2l12.8 11.2 12.8-11.2c-1.6-4.8-3.2-25.6-3.2-27.2 4.8-3.2 12.8-6.4 20.8-6.4 33.6 0 33.6 27.2 19.2 35.2l4.8 8s17.6-14.4 9.6-30.4c3.2 0 8-1.6 11.2-1.6 38.4 0 40 28.8 30.4 35.2l6.4 9.6c-3.2 0 14.4-22.4-8-41.6z"></path>
<path fill="#005bbf" d="M334.4 321.6c0-4.8 4.8-9.6 9.6-9.6 6.4 0 9.6 4.8 9.6 9.6s-4.8 9.6-9.6 9.6-9.6-4.8-9.6-9.6z"></path>
<path fill="#c8b100" d="M340.8 294.4v4.8h-4.8v4.8h4.8v16h-6.4v4.8h19.2l1.6-3.2-1.6-1.6h-6.4v-16h4.8v-4.8h-4.8v-4.8z"></path>
<path fill="#ed4c5c" d="M344 452.8c-25.6 0-48-3.2-65.6-8 17.6-4.8 40-8 65.6-8s48 3.2 65.6 8c-16 4.8-40 8-65.6 8z"></path>
<path fill="#fff" d="M345.6 729.6c-30.4 0-59.2-8-84.8-19.2-19.2-9.6-30.4-27.2-30.4-48v-76.8h230.4v76.8c0 20.8-12.8 40-30.4 48-25.6 12.8-54.4 19.2-84.8 19.2zM344 457.6h115.2v128h-115.2z"></path>
<path fill="#ed4c5c" d="M345.6 662.4c0 30.4-25.6 54.4-57.6 54.4s-57.6-24-57.6-54.4v-76.8h115.2z"></path>
<path fill="#c8b100" d="M254.4 707.2c3.2 1.6 8 4.8 14.4 6.4v-131.2h-12.8zM228.8 660.8c0 16 6.4 28.8 12.8 35.2v-113.6h-12.8z"></path>
<path fill="#c7b500" d="M280 716.8h12.8v-134.4h-12.8z"></path>
<path fill="#c8b100" d="M305.6 713.6c4.8-1.6 11.2-4.8 14.4-6.4v-124.8h-12.8z"></path>
<path fill="#ed4c5c" d="M228.8 457.6h115.2v128h-115.2z"></path>
<path fill="#c8b100" d="M332.8 696c6.4-4.8 11.2-16 12.8-28.8v-83.2h-12.8z"></path>
<path fill="#ed4c5c" d="M460.8 585.6v76.8c0 30.4-25.6 54.4-57.6 54.4s-57.6-24-57.6-54.4v-76.8zM419.2 480c4.8 9.6 4.8 33.6-9.6 28.8 3.2 1.6 4.8 12.8 9.6 19.2 8 9.6 17.6 1.6 16-9.6-3.2-17.6-1.6-28.8 1.6-46.4 0 1.6 8 1.6 11.2-1.6-1.6 4.8-3.2 11.2 0 11.2-3.2 4.8-11.2 12.8-12.8 17.6-1.6 11.2 16 32-3.2 36.8-12.8 3.2-4.8 12.8 0 17.6 0 0-6.4 20.8-3.2 19.2-12.8 4.8-9.6-6.4-9.6-6.4 6.4-19.2-11.2-20.8-9.6-24-16-1.6 1.6 14.4-12.8 14.4-3.2 0-9.6 3.2-9.6 3.2-17.6-1.6-8-17.6-1.6-16 4.8 1.6 9.6 9.6 9.6-1.6 0 0-8-12.8 12.8-12.8-8 0-12.8-6.4-16-14.4-3.2 1.6-8 9.6-25.6 11.2 0 0-4.8-17.6 0-14.4 6.4 3.2 9.6 3.2 16-3.2-3.2-4.8-22.4-11.2-19.2-22.4 0-3.2 9.6-8 9.6-8-1.6 8 3.2 16 12.8 16 12.8 1.6 8-3.2 9.6-6.4s11.2 1.6 8-6.4c0-1.6-11.2-3.2-8-8 6.4-8 16-1.6 24 6.4zM345.6 713.6l-3.2-8 3.2-9.6 3.2 9.6z"></path>
<path fill="#c8b100" d="M264 484.8v8h3.2v6.4h-8v16h4.8v35.2h-9.6v17.6h65.6v-17.6h-8v-35.2h3.2v-16h-8v-6.4h4.8v-8h-16v8h3.2v6.4h-8v-19.2h4.8v-8h-17.6v8h4.8v19.2h-8v-6.4h3.2v-8zM444.8 681.6v-80h-83.2v80l38.4 17.6h4.8zM400 608v27.2l-27.2-27.2zM366.4 609.6l32 32-32 32zM369.6 680l30.4-30.4v44.8zM404.8 692.8v-44.8l30.4 30.4zM438.4 673.6l-32-32 32-32zM404.8 608h27.2l-27.2 27.2z"></path>
<path fill="#ed4c5c" d="M307.2 584c0-24 16-41.6 36.8-41.6s36.8 19.2 36.8 41.6-16 41.6-36.8 41.6-36.8-17.6-36.8-41.6z"></path>
<path fill="#005bbf" d="M318.4 584c0-17.6 11.2-30.4 25.6-30.4s25.6 14.4 25.6 30.4c0 17.6-11.2 30.4-25.6 30.4-12.8 1.6-25.6-12.8-25.6-30.4z"></path>
<path fill="#c8b100" d="M332.8 563.2l-6.4 17.6 4.8 1.6-3.2 6.4h9.6l-3.2-6.4 4.8-1.6zM356.8 563.2l-6.4 17.6 4.8 1.6-3.2 6.4h9.6l-1.6-6.4 4.8-1.6zM345.6 584l-8 17.6 4.8 1.6-1.6 6.4h8l-1.6-6.4 4.8-1.6z"></path>
</svg>
