<svg width="80" height="23" viewBox="0 0 80 23" fill="none" xmlns="http://www.w3.org/2000/svg">
<path d="M0.764375 18C0.588375 18 0.444375 17.944 0.332375 17.832C0.220375 17.72 0.164375 17.576 0.164375 17.4V1.8C0.164375 1.624 0.220375 1.48 0.332375 1.368C0.444375 1.256 0.588375 1.2 0.764375 1.2H3.78838C3.96438 1.2 4.10838 1.256 4.22038 1.368C4.33238 1.48 4.38838 1.624 4.38838 1.8V7.128L8.82838 1.656C8.89238 1.56 8.99638 1.464 9.14038 1.368C9.30038 1.256 9.50838 1.2 9.76438 1.2H13.2204C13.3644 1.2 13.4844 1.256 13.5804 1.368C13.6764 1.464 13.7244 1.576 13.7244 1.704C13.7244 1.816 13.6924 1.912 13.6284 1.992L7.89238 9.24L14.0844 17.208C14.1484 17.272 14.1804 17.368 14.1804 17.496C14.1804 17.624 14.1244 17.744 14.0124 17.856C13.9164 17.952 13.8044 18 13.6764 18H10.1004C9.81238 18 9.58838 17.936 9.42838 17.808C9.28438 17.68 9.18838 17.584 9.14038 17.52L4.38838 11.592V17.4C4.38838 17.576 4.33238 17.72 4.22038 17.832C4.10838 17.944 3.96438 18 3.78838 18H0.764375ZM16.391 18C16.215 18 16.071 17.944 15.959 17.832C15.847 17.72 15.791 17.576 15.791 17.4V6.12C15.791 5.96 15.847 5.824 15.959 5.712C16.071 5.584 16.215 5.52 16.391 5.52H19.151C19.327 5.52 19.471 5.584 19.583 5.712C19.695 5.824 19.751 5.96 19.751 6.12V7.08C20.183 6.584 20.695 6.2 21.287 5.928C21.895 5.656 22.575 5.52 23.327 5.52H24.383C24.543 5.52 24.679 5.576 24.791 5.688C24.919 5.8 24.983 5.944 24.983 6.12V8.592C24.983 8.752 24.919 8.896 24.791 9.024C24.679 9.136 24.543 9.192 24.383 9.192H22.055C21.399 9.192 20.887 9.376 20.519 9.744C20.167 10.096 19.991 10.6 19.991 11.256V17.4C19.991 17.576 19.927 17.72 19.799 17.832C19.687 17.944 19.543 18 19.367 18H16.391ZM29.0174 22.56C28.8734 22.56 28.7534 22.512 28.6574 22.416C28.5614 22.32 28.5134 22.2 28.5134 22.056C28.5134 22.024 28.5134 21.976 28.5134 21.912C28.5294 21.864 28.5534 21.808 28.5854 21.744L30.4574 17.232L25.8494 6.336C25.8014 6.224 25.7774 6.128 25.7774 6.048C25.8094 5.904 25.8734 5.784 25.9694 5.688C26.0654 5.576 26.1854 5.52 26.3294 5.52H29.0654C29.2734 5.52 29.4254 5.576 29.5214 5.688C29.6334 5.784 29.7054 5.896 29.7374 6.024L32.4974 13.008L35.3054 6.024C35.3694 5.896 35.4494 5.784 35.5454 5.688C35.6574 5.576 35.8174 5.52 36.0254 5.52H38.7134C38.8574 5.52 38.9774 5.576 39.0734 5.688C39.1854 5.784 39.2414 5.896 39.2414 6.024C39.2414 6.104 39.2174 6.208 39.1694 6.336L32.3774 22.056C32.3294 22.184 32.2494 22.296 32.1374 22.392C32.0254 22.504 31.8654 22.56 31.6574 22.56H29.0174ZM41.6098 22.56C41.4338 22.56 41.2898 22.504 41.1777 22.392C41.0658 22.28 41.0098 22.136 41.0098 21.96V6.12C41.0098 5.944 41.0658 5.8 41.1777 5.688C41.2898 5.576 41.4338 5.52 41.6098 5.52H44.3218C44.4818 5.52 44.6178 5.576 44.7298 5.688C44.8578 5.8 44.9218 5.944 44.9218 6.12V7.008C45.2898 6.512 45.7778 6.104 46.3858 5.784C46.9938 5.448 47.7458 5.28 48.6418 5.28C49.4418 5.28 50.1458 5.408 50.7538 5.664C51.3618 5.904 51.8818 6.264 52.3138 6.744C52.7458 7.224 53.0818 7.808 53.3218 8.496C53.5778 9.184 53.7218 9.976 53.7538 10.872C53.7698 11.192 53.7778 11.488 53.7778 11.76C53.7778 12.032 53.7698 12.328 53.7538 12.648C53.7218 13.512 53.5858 14.288 53.3458 14.976C53.1058 15.664 52.7698 16.248 52.3378 16.728C51.9058 17.208 51.3778 17.584 50.7538 17.856C50.1458 18.112 49.4418 18.24 48.6418 18.24C47.8578 18.24 47.1698 18.104 46.5778 17.832C46.0018 17.544 45.5218 17.144 45.1378 16.632V21.96C45.1378 22.136 45.0818 22.28 44.9698 22.392C44.8578 22.504 44.7138 22.56 44.5378 22.56H41.6098ZM47.3458 15.024C47.8898 15.024 48.3138 14.912 48.6178 14.688C48.9218 14.464 49.1378 14.16 49.2658 13.776C49.4098 13.392 49.4978 12.968 49.5298 12.504C49.5618 12.008 49.5618 11.512 49.5298 11.016C49.4978 10.552 49.4098 10.128 49.2658 9.744C49.1378 9.36 48.9218 9.056 48.6178 8.832C48.3138 8.608 47.8898 8.496 47.3458 8.496C46.8178 8.496 46.3938 8.616 46.0738 8.856C45.7538 9.08 45.5218 9.376 45.3778 9.744C45.2338 10.112 45.1538 10.512 45.1378 10.944C45.1218 11.248 45.1138 11.544 45.1138 11.832C45.1138 12.12 45.1218 12.424 45.1378 12.744C45.1538 13.144 45.2418 13.52 45.4018 13.872C45.5618 14.208 45.8018 14.488 46.1218 14.712C46.4418 14.92 46.8498 15.024 47.3458 15.024ZM62.4641 18C61.4401 18 60.5521 17.84 59.8001 17.52C59.0641 17.184 58.4961 16.672 58.0961 15.984C57.6961 15.28 57.4961 14.376 57.4961 13.272V8.664H55.6241C55.4481 8.664 55.2961 8.608 55.1681 8.496C55.0561 8.384 55.0001 8.24 55.0001 8.064V6.12C55.0001 5.944 55.0561 5.8 55.1681 5.688C55.2961 5.576 55.4481 5.52 55.6241 5.52H57.4961V1.56C57.4961 1.384 57.5521 1.24 57.6641 1.128C57.7921 1.016 57.9361 0.959999 58.0961 0.959999H60.8801C61.0561 0.959999 61.2001 1.016 61.3121 1.128C61.4241 1.24 61.4801 1.384 61.4801 1.56V5.52H64.4801C64.6561 5.52 64.8001 5.576 64.9121 5.688C65.0241 5.8 65.0801 5.944 65.0801 6.12V8.064C65.0801 8.24 65.0241 8.384 64.9121 8.496C64.8001 8.608 64.6561 8.664 64.4801 8.664H61.4801V12.936C61.4801 13.48 61.5841 13.912 61.7921 14.232C62.0001 14.552 62.3521 14.712 62.8481 14.712H64.6961C64.8721 14.712 65.0161 14.768 65.1281 14.88C65.2401 14.992 65.2961 15.136 65.2961 15.312V17.4C65.2961 17.576 65.2401 17.72 65.1281 17.832C65.0161 17.944 64.8721 18 64.6961 18H62.4641ZM73.1872 18.24C71.8432 18.24 70.7072 18.024 69.7792 17.592C68.8672 17.16 68.1632 16.544 67.6672 15.744C67.1872 14.928 66.9152 13.96 66.8512 12.84C66.8352 12.52 66.8272 12.16 66.8272 11.76C66.8272 11.344 66.8352 10.984 66.8512 10.68C66.9152 9.544 67.2032 8.576 67.7152 7.776C68.2272 6.976 68.9392 6.36 69.8512 5.928C70.7792 5.496 71.8912 5.28 73.1872 5.28C74.4992 5.28 75.6112 5.496 76.5232 5.928C77.4512 6.36 78.1712 6.976 78.6832 7.776C79.1952 8.576 79.4832 9.544 79.5472 10.68C79.5632 10.984 79.5712 11.344 79.5712 11.76C79.5712 12.16 79.5632 12.52 79.5472 12.84C79.4832 13.96 79.2032 14.928 78.7072 15.744C78.2272 16.544 77.5232 17.16 76.5952 17.592C75.6832 18.024 74.5472 18.24 73.1872 18.24ZM73.1872 15.312C73.9072 15.312 74.4272 15.096 74.7472 14.664C75.0832 14.232 75.2752 13.584 75.3232 12.72C75.3392 12.48 75.3472 12.16 75.3472 11.76C75.3472 11.36 75.3392 11.04 75.3232 10.8C75.2752 9.952 75.0832 9.312 74.7472 8.88C74.4272 8.432 73.9072 8.208 73.1872 8.208C72.4832 8.208 71.9632 8.432 71.6272 8.88C71.2912 9.312 71.1072 9.952 71.0752 10.8C71.0592 11.04 71.0512 11.36 71.0512 11.76C71.0512 12.16 71.0592 12.48 71.0752 12.72C71.1072 13.584 71.2912 14.232 71.6272 14.664C71.9632 15.096 72.4832 15.312 73.1872 15.312Z" fill="#ef4444"/>
</svg>
