<!-- Generated by IcoMoon.io -->
<svg version="1.1" xmlns="http://www.w3.org/2000/svg" width="896" height="1024" viewBox="0 0 896 1024">
<title></title>
<g id="icomoon-ignore">
</g>
<path fill="#000" d="M800 64h-704c-53.019 0-96 42.981-96 96v0 704c0 53.019 42.981 96 96 96v0h274.5v-304.62h-126v-143.38h126v-109.28c0-124.3 74-192.96 187.34-192.96 54.28 0 111.040 9.68 111.040 9.68v122h-62.54c-61.62 0-80.84 38.24-80.84 77.46v93.1h137.56l-22 143.38h-115.56v304.62h274.5c53.019 0 96-42.981 96-96v0-704c0-53.019-42.981-96-96-96v0z"></path>
</svg>
