<!-- Generated by IcoMoon.io -->
<svg version="1.1" xmlns="http://www.w3.org/2000/svg" width="896" height="1024" viewBox="0 0 896 1024">
<title></title>
<g id="icomoon-ignore">
</g>
<path fill="#000" d="M832 64h-768.2c-35.2 0-63.8 29-63.8 64.6v766.8c0 35.6 28.6 64.6 63.8 64.6h768.2c35.2 0 64-29 64-64.6v-766.8c0-35.6-28.8-64.6-64-64.6zM270.8 832h-132.8v-427.6h133v427.6zM204.4 346c-42.6 0-77-34.6-77-77s34.4-77 77-77c42.4 0 77 34.6 77 77 0 42.6-34.4 77-77 77zM768.6 832h-132.8v-208c0-49.6-1-113.4-69-113.4-69.2 0-79.8 54-79.8 109.8v211.6h-132.8v-427.6h127.4v58.4h1.8c17.8-33.6 61.2-69 125.8-69 134.4 0 159.4 88.6 159.4 203.8v234.4z"></path>
</svg>
