<!-- Generated by IcoMoon.io -->
<svg version="1.1" xmlns="http://www.w3.org/2000/svg" width="1152" height="1024" viewBox="0 0 1152 1024">
<title></title>
<g id="icomoon-ignore">
</g>
<path fill="#000" d="M1099.31 248.166c-12.562-47.3-49.574-84.552-96.568-97.194-85.18-22.972-426.742-22.972-426.742-22.972s-341.56 0-426.742 22.972c-46.994 12.644-84.006 49.894-96.568 97.194-22.824 85.734-22.824 264.61-22.824 264.61s0 178.876 22.824 264.61c12.562 47.3 49.574 83 96.568 95.642 85.182 22.972 426.742 22.972 426.742 22.972s341.56 0 426.742-22.972c46.994-12.642 84.006-48.342 96.568-95.642 22.824-85.734 22.824-264.61 22.824-264.61s0-178.876-22.824-264.61zM464.29 675.182v-324.812l285.478 162.41-285.478 162.402z"></path>
</svg>
