<!-- Generated by IcoMoon.io -->
<svg version="1.1" xmlns="http://www.w3.org/2000/svg" width="1024" height="1024" viewBox="0 0 1024 1024">
<title></title>
<g id="icomoon-ignore">
</g>
<path fill="#000" d="M813.15 722.809c24.998 24.998 24.998 65.495 0 90.493-12.399 12.499-28.798 18.699-45.196 18.699s-32.757-6.25-45.236-18.749l-210.744-210.634-210.724 210.584c-12.499 12.599-28.878 18.799-45.256 18.799s-32.737-6.2-45.246-18.799c-24.998-24.998-24.998-65.495 0-90.493l210.784-210.784-210.784-210.684c-24.998-24.998-24.998-65.495 0-90.493s65.495-24.998 90.493 0l210.734 210.884 210.784-210.784c24.998-24.998 65.495-24.998 90.493 0s24.998 65.495 0 90.493l-210.784 210.784 210.684 210.684z"></path>
</svg>
